<svg xmlns="http://www.w3.org/2000/svg" width="480" height="480" viewBox="0 0 480 480">
  <g fill="none" fill-rule="evenodd" transform="translate(28 44)">
    <polygon fill="#000000" fill-rule="nonzero" points="19 76 391 39 425 330 0 350" opacity=".1"/>
    <polygon fill="#000000" fill-rule="nonzero" points="74 177 348 174 348 392 74 382"/>
    <rect width="147" height="26" x="96" y="214" stroke="#FFFFFF" stroke-width="4"/>
    <path stroke="#FFFFFF" stroke-width="4" d="M94 264L327 264M94 286L327 286M94 307L284 307"/>
    <circle cx="109" cy="343" r="15" fill="#1373ED" fill-rule="nonzero"/>
    <g stroke="#FFFFFF" stroke-width="4" transform="translate(139 338)">
      <polyline points="0 11 10.504 0 21.041 9.954 31.069 0 41.055 9.954 51.051 0 62 11"/>
      <polyline points="60 11 70.504 0 81.041 9.954 91.069 0 101.055 9.954 111.051 0 122 11"/>
    </g>
    <polygon fill="#FFFFFF" fill-rule="nonzero" stroke="#000000" stroke-width="4" points="58 0 331 20 331 188 58 198"/>
    <polygon fill="#1373ED" fill-rule="nonzero" points="172.276 114.627 212.203 61 274 144 109 144 150.407 81.75"/>
  </g>
</svg>
